<mxfile host="app.diagrams.net" agent="Mozilla/5.0 (Macintosh; Intel Mac OS X 10_15_7) AppleWebKit/605.1.15 (KHTML, like Gecko) Version/17.5 Safari/605.1.15" version="24.7.5">
  <diagram name="Page-1" id="NDf-O3p2A-qy9VPXEkFJ">
    <mxGraphModel dx="1169" dy="1908" grid="1" gridSize="10" guides="1" tooltips="1" connect="1" arrows="1" fold="1" page="1" pageScale="1" pageWidth="827" pageHeight="1169" math="0" shadow="0">
      <root>
        <mxCell id="0" />
        <mxCell id="1" parent="0" />
        <mxCell id="1KAP1oz9Czl0J5ntxcYz-1" value="BMW Series 1 2006" style="rounded=1;whiteSpace=wrap;html=1;" parent="1" vertex="1">
          <mxGeometry x="680" y="80" width="120" height="60" as="geometry" />
        </mxCell>
        <mxCell id="1KAP1oz9Czl0J5ntxcYz-2" value="BMW Series 1 2005" style="rounded=1;whiteSpace=wrap;html=1;" parent="1" vertex="1">
          <mxGeometry x="310" y="280" width="120" height="60" as="geometry" />
        </mxCell>
        <mxCell id="1KAP1oz9Czl0J5ntxcYz-3" value="BMW Series 3 2006" style="rounded=1;whiteSpace=wrap;html=1;" parent="1" vertex="1">
          <mxGeometry x="470" y="460" width="120" height="60" as="geometry" />
        </mxCell>
        <mxCell id="1KAP1oz9Czl0J5ntxcYz-4" value="BMW X5 2005" style="rounded=1;whiteSpace=wrap;html=1;" parent="1" vertex="1">
          <mxGeometry x="240" y="90" width="120" height="60" as="geometry" />
        </mxCell>
        <mxCell id="1KAP1oz9Czl0J5ntxcYz-15" style="rounded=0;orthogonalLoop=1;jettySize=auto;html=1;entryX=0;entryY=0.5;entryDx=0;entryDy=0;shape=link;fillColor=#d5e8d4;strokeColor=#82b366;" parent="1" source="1KAP1oz9Czl0J5ntxcYz-8" target="1KAP1oz9Czl0J5ntxcYz-2" edge="1">
          <mxGeometry relative="1" as="geometry" />
        </mxCell>
        <mxCell id="1KAP1oz9Czl0J5ntxcYz-8" value="Boot Load" style="ellipse;whiteSpace=wrap;html=1;aspect=fixed;" parent="1" vertex="1">
          <mxGeometry x="160" y="330" width="80" height="80" as="geometry" />
        </mxCell>
        <mxCell id="1KAP1oz9Czl0J5ntxcYz-13" value="" style="group" parent="1" vertex="1" connectable="0">
          <mxGeometry x="90" y="470" width="120" height="80" as="geometry" />
        </mxCell>
        <mxCell id="1KAP1oz9Czl0J5ntxcYz-6" value="BMW Series 1 118" style="rounded=1;whiteSpace=wrap;html=1;" parent="1KAP1oz9Czl0J5ntxcYz-13" vertex="1">
          <mxGeometry width="120" height="60" as="geometry" />
        </mxCell>
        <mxCell id="1KAP1oz9Czl0J5ntxcYz-12" value="" style="shape=image;verticalLabelPosition=bottom;labelBackgroundColor=default;verticalAlign=top;aspect=fixed;imageAspect=0;image=data:image/png,iVBORw0KGgoAAAANSUhEUgAAAWIAAAB+CAYAAAAePxsuAAAMPmlDQ1BJQ0MgUHJvZmlsZQAASImVVwdYU8kWnltSIbQAAlJCb4KIlABSQmgBpHcbIQkQSoyBoGJHFhVcCyoWsKGrIoqdZkfsLIq9LxYUlHWxYFfepICu+8r35vvmzn//OfOfM+fO3HsHAPUTXLE4B9UAIFeUL4kJ9mckJacwSN2ACMiADvQBjcvLE7OiosIBLIPt38u7GwCRtVcdZFr/7P+vRZMvyOMBgERBnMbP4+VCfBAAvIonluQDQJTx5lPzxTIMK9CWwAAhXijDGQpcJcNpCrxXbhMXw4a4FQCyKpcryQBA7TLkGQW8DKih1gexk4gvFAGgzoDYJzd3Mh/iVIhtoI0YYpk+M+0HnYy/aaYNaXK5GUNYMRd5IQcI88Q53On/Zzr+d8nNkQ76sIJVNVMSEiObM8zbrezJYTKsCnGvKC0iEmItiD8I+XJ7iFFqpjQkXmGPGvLy2DBnQBdiJz43IAxiQ4iDRDkR4Uo+LV0YxIEYrhB0mjCfEwexHsQLBXmBsUqbTZLJMUpfaH26hM1S8ue4Erlfma8H0ux4llL/daaAo9TH1Aoz4xIhpkJsUSBMiIBYDWLHvOzYMKXNmMJMdsSgjUQaI4vfAuIYgSjYX6GPFaRLgmKU9qW5eYPzxTZlCjkRSrw/PzMuRJEfrJXHlccP54JdFohY8YM6gryk8MG58AUBgYq5Y90CUXysUueDON8/RjEWp4pzopT2uJkgJ1jGm0HsklcQqxyLJ+TDBanQx9PF+VFxijjxwixuaJQiHnwZCAdsEAAYQAprGpgMsoCwvbehF94peoIAF0hABhAAByUzOCJR3iOC11hQCP6ESADyhsb5y3sFoADyX4dYxdUBpMt7C+QjssFTiHNBGMiB91L5KNGQtwTwBDLCf3jnwsqD8ebAKuv/9/wg+51hQSZcyUgHPTLUBy2JgcQAYggxiGiLG+A+uBceDq9+sDrjTNxjcB7f7QlPCR2ER4TrhE7C7UnCIslPUY4FnVA/SJmLtB9zgVtBTVfcH/eG6lAZ18UNgAPuAv2wcF/o2RWybGXcsqwwftL+2wx+eBpKO4oTBaUMo/hRbH4eqWan5jqkIsv1j/lRxJo2lG/2UM/P/tk/ZJ8P27CfLbGF2AHsLHYSO48dwRoAAzuONWJt2FEZHlpdT+Sra9BbjDyebKgj/Ie/wScry2SeU61Tj9MXRV++YJrsHQ3Yk8XTJcKMzHwGC34RBAyOiOc4guHs5OwCgOz7onh9vYmWfzcQ3bbv3Pw/APA+PjAwcPg7F3ocgH3ucPs3fedsmPDToQLAuSaeVFKg4HDZhQDfEupwp+kDY2AObOB8nIEb8AJ+IBCEgkgQB5LBRBh9JlznEjAVzATzQAkoA8vAKrAObARbwA6wG+wHDeAIOAnOgIvgMrgO7sLV0wVegD7wDnxGEISE0BA6oo+YIJaIPeKMMBEfJBAJR2KQZCQVyUBEiBSZicxHypByZB2yGalB9iFNyEnkPNKB3EYeIj3Ia+QTiqGqqDZqhFqhI1EmykLD0Dh0ApqBTkEL0WJ0CboGrUZ3ofXoSfQieh3tRF+g/RjAVDBdzBRzwJgYG4vEUrB0TILNxkqxCqwaq8Oa4XO+inVivdhHnIjTcQbuAFdwCB6P8/Ap+Gx8Mb4O34HX4634Vfwh3od/I9AIhgR7gieBQ0giZBCmEkoIFYRthEOE03AvdRHeEYlEXaI10R3uxWRiFnEGcTFxPXEP8QSxg/iY2E8ikfRJ9iRvUiSJS8onlZDWknaRjpOukLpIH8gqZBOyMzmInEIWkYvIFeSd5GPkK+Rn5M8UDYolxZMSSeFTplOWUrZSmimXKF2Uz1RNqjXVmxpHzaLOo66h1lFPU+9R36ioqJipeKhEqwhV5qqsUdmrck7locpHVS1VO1W26nhVqeoS1e2qJ1Rvq76h0WhWND9aCi2ftoRWQztFe0D7oEZXc1TjqPHV5qhVqtWrXVF7qU5Rt1RnqU9UL1SvUD+gfkm9V4OiYaXB1uBqzNao1GjSuKnRr0nXHKUZqZmruVhzp+Z5zW4tkpaVVqAWX6tYa4vWKa3HdIxuTmfTefT59K300/QubaK2tTZHO0u7THu3drt2n46WjotOgs40nUqdozqdupiulS5HN0d3qe5+3Ru6n4YZDWMNEwxbNKxu2JVh7/WG6/npCfRK9fboXdf7pM/QD9TP1l+u36B/3wA3sDOINphqsMHgtEHvcO3hXsN5w0uH7x9+xxA1tDOMMZxhuMWwzbDfyNgo2EhstNbolFGvsa6xn3GW8UrjY8Y9JnQTHxOhyUqT4ybPGToMFiOHsYbRyugzNTQNMZWabjZtN/1sZm0Wb1ZktsfsvjnVnGmebr7SvMW8z8LEYqzFTItaizuWFEumZablasuzlu+trK0SrRZYNVh1W+tZc6wLrWut79nQbHxtpthU21yzJdoybbNt19tetkPtXO0y7SrtLtmj9m72Qvv19h0jCCM8RohGVI+46aDqwHIocKh1eOio6xjuWOTY4PhypMXIlJHLR54d+c3J1SnHaavT3VFao0JHFY1qHvXa2c6Z51zpfG00bXTQ6DmjG0e/crF3EbhscLnlSncd67rAtcX1q5u7m8Stzq3H3cI91b3K/SZTmxnFXMw850Hw8PeY43HE46Onm2e+537Pv7wcvLK9dnp1j7EeIxizdcxjbzNvrvdm704fhk+qzyafTl9TX65vte8jP3M/vt82v2csW1YWaxfrpb+Tv8T/kP97tid7FvtEABYQHFAa0B6oFRgfuC7wQZBZUEZQbVBfsGvwjOATIYSQsJDlITc5Rhwep4bTF+oeOiu0NUw1LDZsXdijcLtwSXjzWHRs6NgVY+9FWEaIIhoiQSQnckXk/SjrqClRh6OJ0VHRldFPY0bFzIw5G0uPnRS7M/ZdnH/c0ri78Tbx0viWBPWE8Qk1Ce8TAxLLEzuTRibNSrqYbJAsTG5MIaUkpGxL6R8XOG7VuK7xruNLxt+YYD1h2oTzEw0m5kw8Okl9EnfSgVRCamLqztQv3EhuNbc/jZNWldbHY/NW817w/fgr+T0Cb0G54Fm6d3p5eneGd8aKjJ5M38yKzF4hW7hO+CorJGtj1vvsyOzt2QM5iTl7csm5qblNIi1Rtqh1svHkaZM7xPbiEnHnFM8pq6b0ScIk2/KQvAl5jfna8Ee+TWoj/UX6sMCnoLLgw9SEqQemaU4TTWubbjd90fRnhUGFv83AZ/BmtMw0nTlv5sNZrFmbZyOz02a3zDGfUzyna27w3B3zqPOy5/1e5FRUXvR2fuL85mKj4rnFj38J/qW2RK1EUnJzgdeCjQvxhcKF7YtGL1q76Fspv/RCmVNZRdmXxbzFF34d9euaXweWpC9pX+q2dMMy4jLRshvLfZfvKNcsLyx/vGLsivqVjJWlK9+umrTqfIVLxcbV1NXS1Z1rwtc0rrVYu2ztl3WZ665X+lfuqTKsWlT1fj1//ZUNfhvqNhptLNv4aZNw063NwZvrq62qK7YQtxRsebo1YevZ35i/1Wwz2Fa27et20fbOHTE7Wmvca2p2Gu5cWovWSmt7do3fdXl3wO7GOoe6zXt095TtBXule5/vS913Y3/Y/pYDzAN1By0PVh2iHyqtR+qn1/c1ZDZ0NiY3djSFNrU0ezUfOux4ePsR0yOVR3WOLj1GPVZ8bOB44fH+E+ITvSczTj5umdRy91TSqWut0a3tp8NOnzsTdObUWdbZ4+e8zx0573m+6QLzQsNFt4v1ba5th353/f1Qu1t7/SX3S42XPS43d4zpOHbF98rJqwFXz1zjXLt4PeJ6x434G7dujr/ZeYt/q/t2zu1XdwrufL479x7hXul9jfsVDwwfVP9h+8eeTrfOow8DHrY9in109zHv8YsneU++dBU/pT2teGbyrKbbuftIT1DP5efjnne9EL/43Fvyp+afVS9tXh78y++vtr6kvq5XklcDrxe/0X+z/a3L25b+qP4H73LffX5f+kH/w46PzI9nPyV+evZ56hfSlzVfbb82fwv7dm8gd2BAzJVw5b8CGKxoejoAr7cDQEsGgA7PZ9RxivOfvCCKM6scgf+EFWdEeXEDoA7+v0f3wr+bmwDs3QqPX1BffTwAUTQA4jwAOnr0UB08q8nPlbJChOeATdFf03LTwL8pijPnD3H/3AKZqgv4uf0X4pp8VDXVYCcAAACKZVhJZk1NACoAAAAIAAQBGgAFAAAAAQAAAD4BGwAFAAAAAQAAAEYBKAADAAAAAQACAACHaQAEAAAAAQAAAE4AAAAAAAAAkAAAAAEAAACQAAAAAQADkoYABwAAABIAAAB4oAIABAAAAAEAAAFioAMABAAAAAEAAAB+AAAAAEFTQ0lJAAAAU2NyZWVuc2hvdJwRGLUAAAAJcEhZcwAAFiUAABYlAUlSJPAAAAHWaVRYdFhNTDpjb20uYWRvYmUueG1wAAAAAAA8eDp4bXBtZXRhIHhtbG5zOng9ImFkb2JlOm5zOm1ldGEvIiB4OnhtcHRrPSJYTVAgQ29yZSA2LjAuMCI+CiAgIDxyZGY6UkRGIHhtbG5zOnJkZj0iaHR0cDovL3d3dy53My5vcmcvMTk5OS8wMi8yMi1yZGYtc3ludGF4LW5zIyI+CiAgICAgIDxyZGY6RGVzY3JpcHRpb24gcmRmOmFib3V0PSIiCiAgICAgICAgICAgIHhtbG5zOmV4aWY9Imh0dHA6Ly9ucy5hZG9iZS5jb20vZXhpZi8xLjAvIj4KICAgICAgICAgPGV4aWY6UGl4ZWxZRGltZW5zaW9uPjEyNjwvZXhpZjpQaXhlbFlEaW1lbnNpb24+CiAgICAgICAgIDxleGlmOlBpeGVsWERpbWVuc2lvbj4zNTQ8L2V4aWY6UGl4ZWxYRGltZW5zaW9uPgogICAgICAgICA8ZXhpZjpVc2VyQ29tbWVudD5TY3JlZW5zaG90PC9leGlmOlVzZXJDb21tZW50PgogICAgICA8L3JkZjpEZXNjcmlwdGlvbj4KICAgPC9yZGY6UkRGPgo8L3g6eG1wbWV0YT4KYJyS1wAAABxpRE9UAAAAAgAAAAAAAAA/AAAAKAAAAD8AAAA/AAARDTvsUL4AABDZSURBVHgB7F0JeBRFFn4zCfcRwhHkiEK4RE6BEEK4CZcgoICIoCLKKrgorLIq7IrXIuABKAsIigoioKIcgnLfhCgg96FAgCSEACEcciWZma03H52ddKqqu5OedI+89335erpeHa//rvxd/epVtcPDBEgIAUKAECAELEPAQURsGfbUMCFACBACXgSIiKkjEAKEACFgMQJExBbfAGqeECAECAEiYuoDhAAhQAhYjAARscU3gJonBAgBQoCImPoAIUAIEAIWI0BEbPENoOYJAUKAECAipj5ACBAChIDFCBARW3wDqHlCgBAgBIiIqQ8QAoQAIWAxAkTEFt8Aap4QIAQIASJi6gOEACFACFiMABGxxTeAmicECAFCgIiY+gAhQAgQAhYjQERs8Q2g5gkBQoAQICKmPkAIEAKEgMUIEBFbfAOoeUKAECAE/ELEnqwL4Ll1EDw3j4In4wR4slLYX5r5aDsc3jodgEfVn1enSsM8udKdudMcLC27Pl+9cgm3P2qS4+MmyodOBEdvXp4O09ifV3X7t/fE53d2WXWa21vWA+yYwxbFTjoSAoSAHgQcweXAEVwJHIUjwFG0DjiK1GPn5fUUNSWPqUTsyUgA97Vt4L4ezwg4wRQDqRJCgBAgBAoaAUfh6uAsHgXOEjGMnKv7vXnTiNh9dQW4r64G963jfjeaGiAECAFCoCAQcBapAc5Sndlfd782l28i9rjSwX35O3BdXupXQ6lyQoAQIASsQiAopBc4Q/qCIyjULybki4i9JJw+D1xsJExCCBAChMBfGYEgHBmHPu4XMs4XEbsuzqaR8F+559G1EQKEQA4EcGQcVHZojjQzTvJMxO4rKyArbYYZNlAdhAAhQAgEDALB5YaBs7S5PuM8ETFGRLguTKGJuYDpOmQoIUAImIUATuAFlR9pajRFnojYlf4VuC4tNOu6qB5CgBAgBAIKgaAyj0JQ6CDTbDZMxLhYIyv1TYoTNu0WUEWEACEQaAhgbHFwxXGmLfowTMTua5sg69x7gYYb2UsIEAKEgKkIBIeNZgs+2ppSp2EidqXNAteVZaY0TpUQAoQAIRCoCASV7glB5f5mivmGiTgr5VVw3zxgSuNUCSFACBACgYqAs2h9CK40wRTzDRNxZuJgtoHPBVMap0oIAUKAEAhUBHCjoELhX5pivmEizkjoYUrDVAkhQAgQAoGOQOHqP5pyCUTEpsBIlRAChMCdiAAR8Z141+maCQFCwFYIEBHb6naQMYQAIXAnIkBEfCfedbpmQoAQsBUC1hHxyQfpszy26gpkDCFACFiFgGVEnHmyN/s8WpZV103tEgKEACFgGwSsI+JTfcDjvmUbIMgQQoAQIASsQsBCIu7PiPiaVddN7RIChAAhYBsErCPi0wPB47psGyDIEEKAECAErELAOiJOfJItcU6z6ro12716LQv6DN0JN266uHkLF3LCgulNIaxcYa6el7hw2Rn47xcJPJU3LbppWZg0tq5Qr1Yc+uMq/Lg2FU4m3oDElBuQkeEGtxsgK8sNLreH+eABgoIc4HQ4vEeHk507HVCsaBCEVy4KHWMqQPeOYV6dum4951kuD6xYlwq/HbgMqef1u5mCg51Q457icG/NktCiSSiUKV1IT3PcPHawgWvY7cRA6Ee+9i9ZdRbidqX7JuX4XbliEXjx6YgcaUZOfj9xDZ5+eY+wSAjrCz9+0VyoVytGvnEQdu27pE7OPp8wpi7ENCubfW7XH9YRcdIz4Mk8a1dc4Np1F4Q1WgX4jy6SOR80hoEPVRGpc6V3HRQPG7aL99fo16MyfPXR/bnKqRNOJl6HF8cdhFWbznnJVq03cl63Vkn4flYkRDBiNCJHj/8Jg0ftgd2MhPMjxYsFwWO9q8DIZyKgVvUShqqygw1aBtu5H/Fs7/BIHGzbeZGn8qbhQ/z8vi5QKNghzCNTbN6RBp0e2yHMUrZMIUjZ3VmoVyvua78Rjp8SuzhnvNsQhvQPVxez3bmFRPwcI+Ik2wHia1Crh7bBr3vFT9sn+laF2ZMa+RYR/r7FRqsVG68WjrCx4NS36sNzg+4R1oEKHK30e3YnnL+YIc1nRFkutDAsmt4EWkeV01UMCbBdv+1w8VKmrvx6MpUsHgzz2EPogQ5herKDHWzQZSjLZMd+xLM9M8sD5Rv8DDdvsdcqiWz9IQYiG5WR5BCrtIg4NKQQnP1NHxGjnWgv2i2SLyY3hgG99A+WRPX4O906Ik4exr7Okejv68tX/a++exgmzz4hrCO8cjE4trWDUO+r0OqAmHfXT22gfp1SvsVy/E5i7oem3bbApSvmEaDSAI5w1iyIhuimoUoS94jkG/XgFjidfIOrz0+ik7lNZk9qCIMeriqtxg42SA1UKe3Wj1TmZZ/ioAMfGlry/r/ugxFDqmtl4+q1/g+MEPH6bReg2+Px3HaUxEUzmkLvLncpp7Y9WkfESc+yEXGybYFBw9D/+TDzE8vk8Ib2ul7r35z8O4z/+A9hVfhKdmZXZ2DuXKF0GrADNsf7z68ecXdx2LmyDZQoHiS0YcS/D8Cs+aeE+vwq0F98cEM7KM9G6SKxgw0i23jpdutHPBsx7eM5CfDyO4dE6uz0Pg9Ugq+nNck+N/JDi4jx/qfu0R4R4/xH64flb6xo1/pvoslHLLtBmUlDGRGnyLJYrku/nAmVmqyW+mGnj28ATz96t6at7dmr/HbJJEiP2IqweFYzYT2b4tKg80Cxb01Y0KBC5h7ByUEckbvZRKA/ZdgT1WDKG/W4TdjBBq5hkkQ79SOJmTBwxG74boX2/2SVu4rCie0dZVUJdWYR8Yx5p2DkOPmHJXBQc25vFyhdMlhoj10U1o2IE4ewqIlzdsFBaEezB7bA/iNXhPr+PSvD3CnyCTacsKnYeJXUlzXhtbowaqh4NlrvP4nQUJ2Kpg1CYPvSVtzcz4/dD58uOM3VmZmIo6IzuzpxoznsYENertUu/Uhme0TLdZB89qYsS7bu+LYOULVSsexzvT/MIGKcTOzCJvxkvmG0p3PbCrD8c/0RGHqvwR/5LCTiwPhCB4bHzJh7Uoh9xQpF4HR8rFCPijWbz0OPwb9I88gmQPA1DCM4rvzp/yXh6Cu+cqQboL9WLVWbrTF1klBdv+/55sUxEHV/7gkhO9jga6fe33boRzJbkYCRiPUKRvdglI9R0SJiLR/xGWZnVM+tcO6CdrhkoLglEEPriPj042xBhzhe0egN9lf+xStT4LG/75ZWv2d1W6jLYmJFMmbiEfjgk+Mitdcni69QwSzmlyenkm5A7TbrearsNIwXxlf61s3Lel/FXCzsDj0I6EbA3xhXjPWgf/ePBHG4D1bIG+3gRGGNGLkNWLZoESd0bRcGNVkoGraNcc34IFEk/XIGLPn5rOZD5T02IfSCakLIDjYo12H0aId+JLMZXRL41qVXhj9ZDSaP47uPZHXkh4gzMt0Q+2gcxP8mjmRS2n5+cDX48HXj9inlC/poIREPYER8taCv13B7qezJe3fztdJyk5k/czgjQZG07LUVdu0Xx9t2bFUeVs6NEhWHI8f+hEadNwn1qHh9ZG0Y+0ItaR5U4qi6XoeN0hHFuoXR0IoRuq9guFjDTnIbalYrAcs+j2SLNeTxwOjqad5jq9TX/GTfcJjFIih8xQ42+Npj5Lcd+pHM3pfePgTTPk+QZcmha1I/BOKW8V1YOTKqTvJDxHrdUvgmtW5RyzzHOqtMLpBT64j4VD+214T5IVD+QK1+x43SUWQvFh7zDQuT4QmGmlVqskZKOuNG1YYxI8QkuoVFSsSyiAmZbPqupXeVmiyPonuRTXLMZJMdIpk79X7o/2DO186tv16Ejv3jREW86Ru/bakZ/qZUgHHIohVcIaWC4ZXhNeGlZ2so2b1HO9iQwyCDJ1b3I5m5WrHO6rL49oYLO3BBjhHRImLRgo7PFp6G4WP2azaFK13jl7eGymxCMZDEOiIOoG0wh722D+YsShTeV+w8yTs7cf2qy9ekQl+2AEMmaxe0kC6m2PoLI0H2SiYS9OumH+qmewQwacYx+Pd7R0XVAS8IXssG/IdM29+FiwGvoVFvHoTpX570qtAf3axhCHRpGwaxrct7Fwugq0UtdrBBbZORc6v7kchWPQsjeGXXfN0C2rTQtwhIKZ8XIv5lzyWvSwIXRckEHw4/zYsybJOszoLSWUbEgfQV5/k/JMOQl/ZI7wk+hRvXK50rj9YrH+5ZgSML9K2KRGskiCSYfrCrqHiu9PdnHoexk47kSlcSuESsMSLWM2mp1I/HlevPAfpNO7Wp4CVfWdywUk4Lh4KwQbElL0er+5HIZoxCwKXNRuWtl+t431yMlNMiYlzliREziqBLpwWbnMNJOi3hzStolbGLnohYx53AVWS1WssnqiayzUVwvwS1NO22GQ4cFfvCcUMSnN2VCcYfYxyySHB5cNqBLiJ1rvSJ04/B6+8bGxFr/bMaJcFcRulIsIMNOswUZrG6H4kMw4lknFA2Kt3ah8GSzyINFdMiYnwgJ98mYgxP68pi5/EBrCV6wki16rBST0SsE/2ardZD4hmxT5vXKXE/iPDINTmiBtTN/XNYTXh7dB11co5z9KWiT1UkpUoEwwXmFtAruMIPV/qJhDci1rKhIIjYDjaIMNObbmU/EtmIrjN0oRkVPatB1XUaIWKtkD+l7gb3lobNi1sa9lcr5e1wJCLWeRee+sce+HpJsjA3kuFZtjTTNwRNT8gSBpxj4LlMMFynTZ9twiy4cgjdG3rl7am/wztTxcuteUS8Y3c6tO0rfhj4jmT02mE0nx1sMGqzOr+V/Uhti3KOg4VzaXnbRGovC93E7Uz1ihYRVyhbGJLYfMu8xUnwzOi9mtXiwyCOLUCqFm5s90DNigs4AxGxTsD1zNpu+T4Gmjf+/yIErT0RcEIK19UjicsEJytwXb1I9K7PV8q/8eFReHfaMeU015FHxFoPA6PukVyN6kiwgw06zJRmsbIf8Qw7ceo61G2/gafypuES/hfY/iKi7WBnTmgITz2if5tJLSLGqIclc5ozn/V2zV3gcJJ3OQuXjG0tH8gIL85GCiJinTcDN7RuELtRmhtdDOhqUATzYzmR6I3F1NoVS2s1krp9jJjAyAmR8IhYywZ8qCxl/sKyks16lPZwD4B7qhQDnJgxInawwYi9vLxW9iOePfiWh6N0nuCbFg4UYnpvE+47PbhfOHwyMWe8N68uJU2LiDEfLp3GxTtaMv6Ve3OFOGqVsaueiNjAndF6hfNdmJGSehOqRcuXjOLKMZzp1RJcDIKLQkQiir0U5dda6ccj4p3sKwj4D2mm4D8cRpo8wmKW1XHLvHbsYAPPLqNpVvUjnp2ytzaMaMGvZch8tbUjSsD+te14VXPT9BAxt6AqsW/3SjD/47ztAKeqyhanRMQGbsOA53fD9z+lCEtgGBmOILyfUVqa7P2ChTAzU3w7sxn07FxRlsWrw69gRLMQHpEY9c++Mv4wTPn0hKg6bhyx1sNAWJlOBe4ZO+0/DQB9hCKxgw0i24ykW9WPeDZGdt8C+w7zN7VSFhpphd1huJnetxsziBgnhnH7Wdl2rbxrtXMaEbGBu4MLEHAhgkyUjUa0gvfx9RwnJfTEz+I34TCWUiTKBIdIr04fzfac/YjtPSsS3ohY62EgqstIOvoHcbOf6mxfZJ7YwQaeXUbTrOpHajvxe3r41Rjci4Qnq+a3gHbR5bxfQ5Etb//h00jdX1Yxg4hxQhw/omBkkpB3fXZKM4uI/wcAAP//JGgmGgAAEX5JREFU7V0HeBXFFj63JKFDKIEAoUuRHpr0hEAAQfApPAFpYqEpKIqgz4byVIRHsdJUFBAQpIMQFQLSERKa9Ca9CYSOyc2bc2HD3r0727L33r3fPef7YGennDn7z+TfuTNnZm2ZTECH3D3aXkdua2Td8Wca1G//u6IxHwytBK/3rwDVWybDgSM3uHmrPJQHUlc256aLE9TqjSoUDie2thIXUQwPeX8PfDHtGDfPtHG1oGvHEh7pKbuvwiMd1nnE+eKmUZ1I+HV2Q3A4bF7qrWCDl1EGItTaE1X6oh9JTV294SK06b5ZGu2+dzL8z+9oDblzOQD/sqNqroS06+myeYf2Lw8jh1aWTZNGrt10CVp12ySN1n3fqlkRWDqtvu5yVi0QXnapKabZQoGIXa5MiI79Ba6k/cMFrXVcEZg6uhbE1PuFmwcTXni6NHz2QTXFPELizr1pUK8d/wUQVTgCTmxpKWRXvQ5+dzdMnH6cm0+OiFP3pEGDx/g2cJUZSHj/tUowbEAFr5JWsMHLKAMRgepHUlM/+vwQvDd2vzTafR9bLT9sXNwkK61tj82wav3FrHtxoGn9gu6XpziOFzaLiFH//Cl1oV1CUV5VQRVPRKyzuR5/div8vPo8t1T+vE74ekwt6NT3D24eTPh+Qm146rHiinmExF370qDuo3wSLBYVAcc3aSfil97eDZNnWpeIC+QLg7MpiWCTDIr9ScQ8G4Q2ye41EP1IanOHPltgZfIFabT7vn/PMjD+vapZaSPGHYAPPzuYdS8O5MzhgAs7W0OYU9Jg4kz3w2YScYUyuSFlZTMID7PL1BRcUUTEOtvrf5MOw5uj9imWeqxVUVjyyznFPEc3JEDxYjkU8wiJew5cg9g2a4Vbr2t00RxwbGOCVzwvYuB/dsHUWX/xkiHQI2I0LDWpOVSpkMfDRn8SMc8GD4OycROIfiQ2F6cbomOT4PJV+V93342vDV06PBgorFxzATo8s0WswiO8bkFjqFezgEec3I2ZRIz6PxpeBYa8UE6uqqCKIyLW2VybU65AsyfX6yzlmb1sqVywLzneM1Lh7s+D16B2az4RI6EjsWuVfsN3wrc/nuBmtwIRT/y4Bjzz7xgPG/1NxHI2eBiUjZtA9COxufsOXYeaiWvEUR5h7J/YTwVBwkbi5q0EjXnrYXipT1khO/dqNhHnze2EPavioGiRCG6dwZBARKyzlf5Jz3QvXNy8laGz5IPsPTuVhCmf1HwQoRLay/5oain80ZSMzgmH17dQ0fIg+fnXd8D3804+iJCEjBJxTPGcMOuLWKheOR/7uSj/M/VKWjosX3UOBr+zB67flF/8QXP69SgNE0Z4zqFrIWJf2yCByvBtIPqR2Fh8EeMLWU54i781Wq2B/YevyxWBJ9pGu9teNlEUaTYRo+penWJg8ic1RLUEX5CI2ECb4UozrjgblUmjakDvzp6jPSVdaqMXJJ9D67QT8bOv7YAZ880n4lf7locPh2lbPVeac0Qs5F5WWojY1zYotZPeNH/3I7F9fYfthGlz5X8VtW9ZFH6aXFec3R3u/8ZO+GaOfBmt02N6iLhapbzwKVvQbtllE+ACJ09wLQGnRurWUJ8a4ekIdDwRsYEWGDnhIHww4YCBkveK/Lk6DsqXzq25PI5CcDTCk1IlcsLB37UTce9XUmHWolM8dYbniD8fWR2e71aKq1ecoDQiw3w4P4nzlGLRQsS+tkFsT3bD/u5HYntxWgJf8HLSt3tpGPfug4U6Ic/YyUfgrdH89ZEDa1tA6ZI5heyyV61EXDgyHDYsauLWp/TSECp5JDYSkuc28lrgFdKtfiUiNtBCazZegsSnjflC6vVwQPPQHxn9knlSJiYX7F8Tz0v2iu/5cgrMWXzaK16IMDo1gX+8A3qVEdQoXtWI+F9tisHsL+t46NBCxL62wcOgbN74ux8J5qrN9wr59F6lC3xy5bUQMXpfrJjxCDRhbnEo5y7cgYfjkxWnsjDft2NrQbfHS2Aw6ISI2ECT3bqdAUVqrASc59MrndsXhxmfeo701HQcOnYDqrZI5mbTu/jXfVAKzF1qPhGPfacqDOxdhmunOEGNiB9tEQULptYTFwEtROxrGzwMyuaNv/uRYO6K5PPQsc9W4da0K46kP33fc15fqlwLEY9jbnMDmPucWEZ9eQjeGSPv8yzkw+mR3b/FQR62CSXYhIjYYIvFdd4AG7dd1l16Auuo/ViH1SNqRFyOrW7v1eGF0XXgdpj/8xmuCUZHxGaSYJu4KFj0TWCJWM4GLmgGE/zZjwQTcRMHbuYwW2o+nA+2LG2qqFaNiLEvoxeE3c4mfkVy+47L/avwr1O3RLHeQdzVirsSg02IiA222H8+2QdjJh7WXXr7imZQtWJeXeUOH7/h/mnGK4SO7dh5tcpT/bfBwpVnudmJiO9B4w8i9mc/Ehq8NZtWS2bTa2YLbks/l5oI6FLGEzUibhsfBQu/9nwBC7rmLDkNPQenCLey14hwO+xgPuhi1zvZjBaLJCI22CBGft4VLBAGp7d57xhTM+HI8ZtQJX61Yra0fW0BO6EWwc0huEmEJ3JErLa7D3XxtibL1TP6q8OKCz9yJGgFG+SeJTtx/uxHaGdGBrpfJqnOtxp9pp+nN4AWjQtzi6sR8eOti8GcrzzXBgRl6MOMPvxbUq8IUbJX3FA1b5K314dsZotEEhEbbIir19KhWO0kRbcaqWqjHeTYiZtQqbkyEf/weSw8+Wi0tEqve+zETZ9Q3pCCi2S4WCaWU2dvQ7lGv4mjvMK47x/3/6sJHh7TqOM6OHiUfyiSHFZWsEHt2fSm+7MfoW1aDhzS+wzi/G8PrghvDX5IHOURViPijoyIf+QQMSrawKYD49m0oJos+64+tGxaRC2bJdJtNieElVloii0hceiPFCk8iQ07tlYZ9WYVePm5clqzZ+W7c9cFkVVXuEczWZGSQCHm7tOVrRh3ZKOBHGzvv1TuMh3L2RkZMxechLPn70iTPe53/RoHFct5utfhBha0QU0SmxeBBDYiiohwQEa6C9LZCEwsuGL/w8JToDbXJ+dHbAUbxM9iVthf/QjtnTjjONtMs9ss0730IPkhCfJEjYjlXsBSXWpTa5i/Nju0aJPo0CKpDivd2+w5Iaz0XFNMCkkiVjtOUors+oXGnc7RfQfnin0tuXI64NKu1l6LJVgvEnF2dhTqsX3Eq5Vg+MAKXkWsYIOXUdmM8Gc/emZIqvtFmE2TucXz5XG654mli21CATUi5m0mEcrjFRevcaepmtfSH8ubund5istaMWxz5IWwUrNMMS0kiXjBirPQZcA2TQDmyeVk57smyp6zq0VBn1dT2WiWvwlDiw4teerXKgC/z28sm7Vzv22wOIm/yCdbyGDkihkNIL6R91yjFWww+EjcYv7sR5XjVsPRv25ybXmtX/msI0jTmXtmBtvRhg4MTqcd8IxinE5KeGqj4hzz1mVNoUaVfLJ1qBGxnNuinKJBbFQ/iY3ulWRQn7Iwmp2BYXWxOSIZEU83xcyQJOLzl+6qnjssoKv2k03Ix7tu2n4ZmndSnxvjldcaj3v2ce++nMxmm0B6sc0gvhbcnbV3dbzsS8sKNpj9/P7qR+cu3oFS9X9VNF/u1DtpgW4vboeflvPdH9GXGH2K5USNiOUWaeX04CYPXDdBX2ye4JkZR9nxsPgCsbLYnIUhLGaaKSaGJBEjcmpf4hDQ5f3UFtK1XHGRTW3FWIseXh50q8Ofc7yflddupEO1hGTVOWaefq3xX/y3OjzXVX6rtBVs0PocevL5ox8tTjoHnfv9wTULf7Vd2JnIbX+h4PipR2DYh3uFW68rft0FPW/kRI2IcY1hybf8OWaxTrVTBDEvbpOuUz2/uJjlwjZnFCPib0yxK2SJWOkgFDGyv81pCE3q3duyKY7XE8atzg3Z54qUTi3To0+aF/030Y9TSbbtusoOYdnos7liLZ/AsYINShgZSfNHP3rj472A50XwROuXNtZt+RsSWB/gidKWezUi1tL+Qr1adlri7kyc7rCy2MKiIazkFFNMDFkixnlbnL9VEvTvxS8YaPXzVdI1b9kZ6P1KiupChZIOaRqOgNGjA+fUtAhuBnma/TyVekRoKauUB79Xt5h9h0xpQ4BQ3go2CLaYcfVHP0K3L3T/4gl69GA/UJMbN9kWf/YNO/RJ5gl+MQbPVZGKGhEnNCkMy79vIC3GvVdbxNZ70iG3Ih8m2MJKMCKeZEoNIUvEx0/egorNVimCqHWkoahElLh1xxXowXYYKS26iLIrBpH0prOzL9RGwlIluCFk0Nu7Yd3Wv6VJuu/xRYBziiNfr6zrnAAr2KD7YTkFfN2P7v7jcp+PgluFeTLzs1jo1E7dFx3L12m7Fnbv528KkvNFx3JqRKxnRIz61A6wwmNZ8WhUK4stPAbCSnxliokhS8SIXvnGq+DkGf4e+DderADvDalkCtCCEvQtxm/nzWbHWaYyX+bTbMMFxmmRIgXDoWHdgtC4biSg36aeIznF+nGn049LT0MS+4wO+lPvO3RN80g9Mn+Y+4hD/MPr+WSMl9+yuB6lsBVsULJPT5ov+9HFy3ehAuunSotbWo6xFJ5HbX6Wdwoekjf6TfNG01r8iAUb8Kr2IVw955+I9fozbAsryUbEE02pMqSJ2BQETVCCC1niT9nggdk29h+uGdvZ7mc8CwBXkHmLcSaYQCoIAUJAJwK2sGKMiKfqLCWfnYhYHheKJQQIAUJAEQGbsxDzmvhOMY/WRCJirUhRPkKAECAERAjYHPnZho6ZohjjQSJi49hRSUKAEAhhBGz23OysiTmmIEBEbAqMpIQQIARCDQGbPYIR8U+mPDYRsSkwkhJCgBAINQToGMxQa3F6XkKAELAeAsyzKbzMElPsohGxKTCSEkKAEAhFBOgLHaHY6vTMhAAhYCkEiIgt1RxkDCFACIQiAkTEodjq9MyEACFgKQSIiC3VHGQMIUAIhCICASPif070gsz0S6GIOT0zIUAIEAJZCAT0Cx3pZ4aD67bvviab9ZQUIAQIAULAwgjYc1QDZ/THplio230t49JkyEhbbErlpIQQIAQIgWBFwJGvAzgKvWCK+bqJ2HVjDaSfH21K5aSEECAECIFgRcAZNRTsuZubYr5uIs5Mvwjp50ZA5t2jphhASggBQoAQCDYEbOFlwVn0XcB5YjNENxFjpRmXZ0DGldlm1E86CAFCgBAIOgQcBbqAI7K7aXYbImIcDWdcHA+uO4dNM4QUEQKEACEQDAjYI8qDo/DLgKNis8QQEWPlrrRlkH7JnA/nmfUwpIcQIAQIAV8j4CzUH+z52plajWEiRisy/p4CGVcXmWoQKSMECAFCwKoIOPJ3BEfB5003L1tEnJlxGVyXp0PGtSTTDSOFhAAhQAhYCQFH3kSwR/YAmyPSdLOyRcRojZuMr86jkbHpTUMKCQFCwCoI4EjYnr+TT0gYnzHbRCwA5bq2DFxsZEwLeAIidCUECIFgRwAX5uw4Es5r7pywFBfTiBgVozeF68Z6cN3cTH7GUqTpnhAgBIIGAfSIsOdqwDZsNDbVO4IHgKlELFSCmz4y7+yBzNv7GSEfYYcEnaGDggRw6EoIGEGAfZbHBnZW0sb+sSu7vxcWXeXi3PlZHswmhO/d3L+/H+8uK+RRumIxtzIMYMb7kslGYuwfuNg/vOK9KOy+l6Rnxd3PL5TjxGe601E15jdXbM5CbHNGNCPdcmDLUQlsEVVN26yhxVKfELGWiikPIUAIEAKEwD0EiIipJxAChAAhEGAEiIgD3ABUPSFACBACRMTUBwgBQoAQCDACRMQBbgCqnhAgBAgBImLqA4QAIUAIBBgBIuIANwBVTwgQAoQAETH1AUKAECAEAowAEXGAG4CqJwQIAUKAiJj6ACFACBACAUaAiDjADUDVEwKEACFAREx9gBAgBAiBACNARBzgBqDqCQFCgBAgIqY+QAgQAoRAgBH4P6H7hndsPxsdAAAAAElFTkSuQmCC;" parent="1KAP1oz9Czl0J5ntxcYz-13" vertex="1">
          <mxGeometry x="3.8100000000000023" y="40" width="112.38" height="40" as="geometry" />
        </mxCell>
        <mxCell id="1KAP1oz9Czl0J5ntxcYz-14" style="rounded=0;orthogonalLoop=1;jettySize=auto;html=1;entryX=0;entryY=1;entryDx=0;entryDy=0;shape=link;fillColor=#d5e8d4;strokeColor=#82b366;" parent="1" source="1KAP1oz9Czl0J5ntxcYz-6" target="1KAP1oz9Czl0J5ntxcYz-8" edge="1">
          <mxGeometry relative="1" as="geometry" />
        </mxCell>
        <mxCell id="1KAP1oz9Czl0J5ntxcYz-16" style="rounded=0;orthogonalLoop=1;jettySize=auto;html=1;entryX=1;entryY=0.5;entryDx=0;entryDy=0;shape=link;fillColor=#d5e8d4;strokeColor=#82b366;" parent="1" source="1KAP1oz9Czl0J5ntxcYz-17" target="1KAP1oz9Czl0J5ntxcYz-2" edge="1">
          <mxGeometry relative="1" as="geometry">
            <mxPoint x="526" y="270" as="targetPoint" />
          </mxGeometry>
        </mxCell>
        <mxCell id="1KAP1oz9Czl0J5ntxcYz-17" value="Car Battery" style="ellipse;whiteSpace=wrap;html=1;aspect=fixed;" parent="1" vertex="1">
          <mxGeometry x="480" y="320" width="80" height="80" as="geometry" />
        </mxCell>
        <mxCell id="1KAP1oz9Czl0J5ntxcYz-18" style="rounded=0;orthogonalLoop=1;jettySize=auto;html=1;entryX=0.5;entryY=1;entryDx=0;entryDy=0;shape=link;exitX=0.5;exitY=0;exitDx=0;exitDy=0;fillColor=#d5e8d4;strokeColor=#82b366;" parent="1" source="1KAP1oz9Czl0J5ntxcYz-3" target="1KAP1oz9Czl0J5ntxcYz-17" edge="1">
          <mxGeometry relative="1" as="geometry">
            <mxPoint x="626" y="420" as="sourcePoint" />
          </mxGeometry>
        </mxCell>
        <mxCell id="Eu6nKN8PCRjFxfVqbrNm-2" value="Coolant Fluid Unit" style="ellipse;whiteSpace=wrap;html=1;aspect=fixed;" vertex="1" parent="1">
          <mxGeometry x="580" y="180" width="80" height="80" as="geometry" />
        </mxCell>
        <mxCell id="Eu6nKN8PCRjFxfVqbrNm-3" style="rounded=0;orthogonalLoop=1;jettySize=auto;html=1;entryX=0.5;entryY=1;entryDx=0;entryDy=0;shape=link;exitX=0.75;exitY=0;exitDx=0;exitDy=0;fillColor=#d5e8d4;strokeColor=#82b366;" edge="1" parent="1" target="Eu6nKN8PCRjFxfVqbrNm-2" source="1KAP1oz9Czl0J5ntxcYz-3">
          <mxGeometry relative="1" as="geometry">
            <mxPoint x="600" y="360" as="sourcePoint" />
          </mxGeometry>
        </mxCell>
        <mxCell id="Eu6nKN8PCRjFxfVqbrNm-5" style="rounded=0;orthogonalLoop=1;jettySize=auto;html=1;entryX=0;entryY=0.5;entryDx=0;entryDy=0;shape=link;exitX=1;exitY=0;exitDx=0;exitDy=0;fillColor=#d5e8d4;strokeColor=#82b366;" edge="1" parent="1" source="1KAP1oz9Czl0J5ntxcYz-2" target="Eu6nKN8PCRjFxfVqbrNm-2">
          <mxGeometry relative="1" as="geometry">
            <mxPoint x="420" y="290" as="sourcePoint" />
            <mxPoint x="460" y="70" as="targetPoint" />
          </mxGeometry>
        </mxCell>
        <mxCell id="Eu6nKN8PCRjFxfVqbrNm-6" value="Hood Lock" style="ellipse;whiteSpace=wrap;html=1;aspect=fixed;fillColor=#f8cecc;strokeColor=#b85450;" vertex="1" parent="1">
          <mxGeometry x="120" y="130" width="80" height="80" as="geometry" />
        </mxCell>
        <mxCell id="Eu6nKN8PCRjFxfVqbrNm-8" style="rounded=0;orthogonalLoop=1;jettySize=auto;html=1;entryX=1;entryY=0.5;entryDx=0;entryDy=0;shape=link;exitX=0;exitY=0;exitDx=0;exitDy=0;fillColor=#f8cecc;strokeColor=#b85450;" edge="1" parent="1" source="Eu6nKN8PCRjFxfVqbrNm-2" target="1KAP1oz9Czl0J5ntxcYz-4">
          <mxGeometry relative="1" as="geometry">
            <mxPoint x="677" y="230" as="sourcePoint" />
            <mxPoint x="827" y="170" as="targetPoint" />
          </mxGeometry>
        </mxCell>
        <mxCell id="Eu6nKN8PCRjFxfVqbrNm-9" value="&lt;h1 style=&quot;margin-top: 0px;&quot;&gt;BMW Car Part Compatibility Cheat Sheet&lt;/h1&gt;&lt;p&gt;Use this to see if the part is compatible with your car.&lt;/p&gt;" style="text;html=1;whiteSpace=wrap;overflow=hidden;rounded=0;" vertex="1" parent="1">
          <mxGeometry x="10" y="-130" width="320" height="120" as="geometry" />
        </mxCell>
      </root>
    </mxGraphModel>
  </diagram>
</mxfile>
